# xmcd
#
# Track frame offsets:
# 150
# 23767
# 42750
# 61505
# 80077
# 101552
# 121295
# 141855
# 164395
# 184095
#
# Disc length: 2695 seconds
#
#
# Revision: 0
# Processed by: cddbd v1.5.1PL2 Copyright (c) Steve Scherf et al.
# Submitted via: FreeRIP 2.945 
#
DISCID=7b0a850a
DTITLE=鍾鎮濤 - 飄
DYEAR=1900
DGENRE=Pop
TTITLE0=我不是最傷心的人
TTITLE1=愛得忘了自己
TTITLE2=你在那一場夢
TTITLE3=我的小王子
TTITLE4=凍結
TTITLE5=飄
TTITLE6=When I'm back on my feel again
TTITLE7=拒絕然後想念
TTITLE8=夏日童話
TTITLE9=情深幾許
EXTD=
EXTT0=
EXTT1=
EXTT2=
EXTT3=
EXTT4=
EXTT5=
EXTT6=
EXTT7=
EXTT8=
EXTT9=
PLAYORDER=
